<svg width="32" height="32" xmlns="http://www.w3.org/2000/svg"><path fill-rule="evenodd" clip-rule="evenodd" d="M16 0C12.9989 0 10.478 0.15872 8.4001 0.620512C6.30403 1.08635 4.56186 1.8816 3.22173 3.22173C1.8816 4.56186 1.08635 6.30403 0.620512 8.40013C0.15872 10.478 0 12.9989 0 16C0 19.0011 0.15872 21.5219 0.620512 23.5998C1.08635 25.696 1.8816 27.4381 3.22173 28.7782C3.54938 29.1059 3.90102 29.401 4.276 29.6666C12.1984 22.7655 15.0021 7.37363 15.0301 7.21475C15.0701 6.98653 15.1893 6.77974 15.3667 6.63072C15.5441 6.4817 15.7683 6.4 16 6.4C16.2317 6.4 16.4559 6.4817 16.6333 6.63072C16.8107 6.77974 16.9299 6.98653 16.9699 7.21475C16.9975 7.37363 19.8016 22.7651 27.724 29.6666C28.099 29.4009 28.4506 29.1059 28.7782 28.7782C30.1184 27.4381 30.9136 25.696 31.3795 23.5998C31.8413 21.5219 32 19.0011 32 16C32 12.9989 31.8413 10.478 31.3795 8.40013C30.9136 6.30403 30.1184 4.56186 28.7782 3.22173C27.4381 1.8816 25.696 1.08635 23.5998 0.620512C21.5219 0.15872 19.0011 0 16 0ZM21.4021 31.7422L16.8809 22.6997C16.7956 22.5403 16.6686 22.4069 16.5135 22.314C16.3584 22.2211 16.1809 22.172 16.0001 22.172C15.8193 22.172 15.6418 22.2211 15.4867 22.314C15.3316 22.4069 15.2046 22.5403 15.1193 22.6997L10.598 31.7422C12.1901 31.9286 13.987 32 16 32C18.0131 32 19.81 31.9286 21.4021 31.7422Z" fill="#3B82F6"/></svg>
